<mxfile host="app.diagrams.net" modified="2023-11-13T10:30:46.849Z" agent="Mozilla/5.0 (X11; Linux x86_64) AppleWebKit/537.36 (KHTML, like Gecko) Chrome/115.0.0.0 Safari/537.36" etag="pJwoH45WlA_2cZljWM-p" version="22.1.0" type="device">
  <diagram name="Page-1" id="zZIjlVgIFrnFrHsxci6c">
    <mxGraphModel dx="989" dy="449" grid="1" gridSize="10" guides="1" tooltips="1" connect="1" arrows="1" fold="1" page="1" pageScale="1" pageWidth="850" pageHeight="1100" math="0" shadow="0">
      <root>
        <mxCell id="0" />
        <mxCell id="1" parent="0" />
        <mxCell id="mUu3V_M0jlN69xFy6iNN-3" value="Main client machine state" style="swimlane;whiteSpace=wrap;html=1;" vertex="1" parent="1">
          <mxGeometry x="10" y="10" width="1200" height="970" as="geometry" />
        </mxCell>
        <mxCell id="mUu3V_M0jlN69xFy6iNN-9" style="edgeStyle=orthogonalEdgeStyle;rounded=0;orthogonalLoop=1;jettySize=auto;html=1;" edge="1" parent="mUu3V_M0jlN69xFy6iNN-3" source="mUu3V_M0jlN69xFy6iNN-6" target="mUu3V_M0jlN69xFy6iNN-8">
          <mxGeometry relative="1" as="geometry" />
        </mxCell>
        <mxCell id="mUu3V_M0jlN69xFy6iNN-6" value="" style="ellipse;whiteSpace=wrap;html=1;aspect=fixed;" vertex="1" parent="mUu3V_M0jlN69xFy6iNN-3">
          <mxGeometry x="20" y="50" width="80" height="80" as="geometry" />
        </mxCell>
        <mxCell id="mUu3V_M0jlN69xFy6iNN-7" value="start" style="ellipse;whiteSpace=wrap;html=1;aspect=fixed;" vertex="1" parent="mUu3V_M0jlN69xFy6iNN-3">
          <mxGeometry x="25" y="55" width="70" height="70" as="geometry" />
        </mxCell>
        <mxCell id="mUu3V_M0jlN69xFy6iNN-19" value="" style="edgeStyle=orthogonalEdgeStyle;rounded=0;orthogonalLoop=1;jettySize=auto;html=1;" edge="1" parent="mUu3V_M0jlN69xFy6iNN-3" source="mUu3V_M0jlN69xFy6iNN-8" target="mUu3V_M0jlN69xFy6iNN-18">
          <mxGeometry relative="1" as="geometry" />
        </mxCell>
        <mxCell id="mUu3V_M0jlN69xFy6iNN-8" value="read&lt;br&gt;server&lt;br&gt;list" style="ellipse;whiteSpace=wrap;html=1;aspect=fixed;" vertex="1" parent="mUu3V_M0jlN69xFy6iNN-3">
          <mxGeometry x="160" y="50" width="80" height="80" as="geometry" />
        </mxCell>
        <mxCell id="mUu3V_M0jlN69xFy6iNN-10" value="unable&lt;br&gt;to&lt;br&gt;open&lt;br&gt;serverlist" style="ellipse;whiteSpace=wrap;html=1;aspect=fixed;" vertex="1" parent="mUu3V_M0jlN69xFy6iNN-3">
          <mxGeometry x="110" y="200" width="80" height="80" as="geometry" />
        </mxCell>
        <mxCell id="mUu3V_M0jlN69xFy6iNN-11" value="" style="ellipse;whiteSpace=wrap;html=1;aspect=fixed;" vertex="1" parent="mUu3V_M0jlN69xFy6iNN-3">
          <mxGeometry x="500" y="470" width="80" height="80" as="geometry" />
        </mxCell>
        <mxCell id="mUu3V_M0jlN69xFy6iNN-12" value="end" style="ellipse;whiteSpace=wrap;html=1;aspect=fixed;" vertex="1" parent="mUu3V_M0jlN69xFy6iNN-3">
          <mxGeometry x="505" y="475" width="70" height="70" as="geometry" />
        </mxCell>
        <mxCell id="mUu3V_M0jlN69xFy6iNN-14" value="failed" style="endArrow=classic;html=1;rounded=0;exitX=0.36;exitY=0.995;exitDx=0;exitDy=0;exitPerimeter=0;" edge="1" parent="mUu3V_M0jlN69xFy6iNN-3" source="mUu3V_M0jlN69xFy6iNN-8" target="mUu3V_M0jlN69xFy6iNN-10">
          <mxGeometry width="50" height="50" relative="1" as="geometry">
            <mxPoint x="210" y="200" as="sourcePoint" />
            <mxPoint x="260" y="150" as="targetPoint" />
          </mxGeometry>
        </mxCell>
        <mxCell id="mUu3V_M0jlN69xFy6iNN-16" value="retry" style="endArrow=classic;html=1;rounded=0;exitX=0.93;exitY=0.29;exitDx=0;exitDy=0;exitPerimeter=0;entryX=0.685;entryY=1.01;entryDx=0;entryDy=0;entryPerimeter=0;" edge="1" parent="mUu3V_M0jlN69xFy6iNN-3" source="mUu3V_M0jlN69xFy6iNN-10" target="mUu3V_M0jlN69xFy6iNN-8">
          <mxGeometry width="50" height="50" relative="1" as="geometry">
            <mxPoint x="226" y="140" as="sourcePoint" />
            <mxPoint x="200" y="212" as="targetPoint" />
          </mxGeometry>
        </mxCell>
        <mxCell id="mUu3V_M0jlN69xFy6iNN-17" value="quit" style="endArrow=classic;html=1;rounded=0;exitX=1.027;exitY=0.625;exitDx=0;exitDy=0;exitPerimeter=0;fillColor=#f8cecc;strokeColor=#b85450;dashed=1;" edge="1" parent="mUu3V_M0jlN69xFy6iNN-3" source="mUu3V_M0jlN69xFy6iNN-10" target="mUu3V_M0jlN69xFy6iNN-11">
          <mxGeometry width="50" height="50" relative="1" as="geometry">
            <mxPoint x="260" y="272" as="sourcePoint" />
            <mxPoint x="291" y="180" as="targetPoint" />
          </mxGeometry>
        </mxCell>
        <mxCell id="mUu3V_M0jlN69xFy6iNN-22" value="" style="edgeStyle=orthogonalEdgeStyle;rounded=0;orthogonalLoop=1;jettySize=auto;html=1;" edge="1" parent="mUu3V_M0jlN69xFy6iNN-3" source="mUu3V_M0jlN69xFy6iNN-18" target="mUu3V_M0jlN69xFy6iNN-20">
          <mxGeometry relative="1" as="geometry" />
        </mxCell>
        <mxCell id="mUu3V_M0jlN69xFy6iNN-18" value="bind&lt;br&gt;pick&lt;br&gt;port" style="ellipse;whiteSpace=wrap;html=1;aspect=fixed;" vertex="1" parent="mUu3V_M0jlN69xFy6iNN-3">
          <mxGeometry x="320" y="65" width="80" height="80" as="geometry" />
        </mxCell>
        <mxCell id="mUu3V_M0jlN69xFy6iNN-33" value="app.getServerListCount()&amp;lt;=0" style="edgeStyle=orthogonalEdgeStyle;rounded=0;orthogonalLoop=1;jettySize=auto;html=1;entryX=0;entryY=0.5;entryDx=0;entryDy=0;" edge="1" parent="mUu3V_M0jlN69xFy6iNN-3" source="mUu3V_M0jlN69xFy6iNN-20" target="mUu3V_M0jlN69xFy6iNN-30">
          <mxGeometry relative="1" as="geometry" />
        </mxCell>
        <mxCell id="mUu3V_M0jlN69xFy6iNN-20" value="connecting&lt;br&gt;to&lt;br&gt;server" style="ellipse;whiteSpace=wrap;html=1;aspect=fixed;" vertex="1" parent="mUu3V_M0jlN69xFy6iNN-3">
          <mxGeometry x="470" y="66" width="80" height="80" as="geometry" />
        </mxCell>
        <mxCell id="mUu3V_M0jlN69xFy6iNN-21" value="failed&lt;br&gt;to&lt;br&gt;bind&lt;br&gt;port" style="ellipse;whiteSpace=wrap;html=1;aspect=fixed;" vertex="1" parent="mUu3V_M0jlN69xFy6iNN-3">
          <mxGeometry x="310" y="200" width="80" height="80" as="geometry" />
        </mxCell>
        <mxCell id="mUu3V_M0jlN69xFy6iNN-24" value="failed" style="endArrow=classic;html=1;rounded=0;entryX=0.102;entryY=0.225;entryDx=0;entryDy=0;entryPerimeter=0;" edge="1" parent="mUu3V_M0jlN69xFy6iNN-3" source="mUu3V_M0jlN69xFy6iNN-18" target="mUu3V_M0jlN69xFy6iNN-21">
          <mxGeometry width="50" height="50" relative="1" as="geometry">
            <mxPoint x="320" y="140" as="sourcePoint" />
            <mxPoint x="294" y="212" as="targetPoint" />
          </mxGeometry>
        </mxCell>
        <mxCell id="mUu3V_M0jlN69xFy6iNN-25" value="retry" style="endArrow=classic;html=1;rounded=0;entryX=0.695;entryY=1.014;entryDx=0;entryDy=0;entryPerimeter=0;" edge="1" parent="mUu3V_M0jlN69xFy6iNN-3" source="mUu3V_M0jlN69xFy6iNN-21" target="mUu3V_M0jlN69xFy6iNN-18">
          <mxGeometry width="50" height="50" relative="1" as="geometry">
            <mxPoint x="384" y="252" as="sourcePoint" />
            <mxPoint x="415" y="160" as="targetPoint" />
          </mxGeometry>
        </mxCell>
        <mxCell id="mUu3V_M0jlN69xFy6iNN-26" value="quit" style="endArrow=classic;html=1;rounded=0;fillColor=#f8cecc;strokeColor=#b85450;dashed=1;entryX=0.023;entryY=0.25;entryDx=0;entryDy=0;entryPerimeter=0;" edge="1" parent="mUu3V_M0jlN69xFy6iNN-3" source="mUu3V_M0jlN69xFy6iNN-21" target="mUu3V_M0jlN69xFy6iNN-11">
          <mxGeometry width="50" height="50" relative="1" as="geometry">
            <mxPoint x="202" y="260" as="sourcePoint" />
            <mxPoint x="518" y="496" as="targetPoint" />
          </mxGeometry>
        </mxCell>
        <mxCell id="mUu3V_M0jlN69xFy6iNN-27" value="wait&lt;br&gt;for&lt;br&gt;response" style="ellipse;whiteSpace=wrap;html=1;aspect=fixed;" vertex="1" parent="mUu3V_M0jlN69xFy6iNN-3">
          <mxGeometry x="460" y="230" width="80" height="80" as="geometry" />
        </mxCell>
        <mxCell id="mUu3V_M0jlN69xFy6iNN-30" value="Failed&lt;br&gt;connect to&lt;br&gt;all servers" style="ellipse;whiteSpace=wrap;html=1;aspect=fixed;" vertex="1" parent="mUu3V_M0jlN69xFy6iNN-3">
          <mxGeometry x="740" y="55" width="80" height="80" as="geometry" />
        </mxCell>
        <mxCell id="mUu3V_M0jlN69xFy6iNN-31" value="app.getServer()" style="endArrow=classic;html=1;rounded=0;entryX=0;entryY=0;entryDx=0;entryDy=0;exitX=0.293;exitY=0.931;exitDx=0;exitDy=0;exitPerimeter=0;" edge="1" parent="mUu3V_M0jlN69xFy6iNN-3" source="mUu3V_M0jlN69xFy6iNN-20" target="mUu3V_M0jlN69xFy6iNN-27">
          <mxGeometry x="0.401" y="-7" width="50" height="50" relative="1" as="geometry">
            <mxPoint x="358" y="138" as="sourcePoint" />
            <mxPoint x="328" y="228" as="targetPoint" />
            <mxPoint as="offset" />
          </mxGeometry>
        </mxCell>
        <mxCell id="mUu3V_M0jlN69xFy6iNN-34" value="quit" style="endArrow=classic;html=1;rounded=0;fillColor=#f8cecc;strokeColor=#b85450;dashed=1;entryX=0.09;entryY=0.206;entryDx=0;entryDy=0;entryPerimeter=0;exitX=0.297;exitY=1.017;exitDx=0;exitDy=0;exitPerimeter=0;" edge="1" parent="mUu3V_M0jlN69xFy6iNN-3" source="mUu3V_M0jlN69xFy6iNN-30" target="mUu3V_M0jlN69xFy6iNN-11">
          <mxGeometry width="50" height="50" relative="1" as="geometry">
            <mxPoint x="381" y="284" as="sourcePoint" />
            <mxPoint x="512" y="500" as="targetPoint" />
          </mxGeometry>
        </mxCell>
        <mxCell id="mUu3V_M0jlN69xFy6iNN-35" value="retry" style="endArrow=classic;html=1;rounded=0;entryX=0.5;entryY=0;entryDx=0;entryDy=0;exitX=0.228;exitY=0.086;exitDx=0;exitDy=0;exitPerimeter=0;" edge="1" parent="mUu3V_M0jlN69xFy6iNN-3" source="mUu3V_M0jlN69xFy6iNN-30" target="mUu3V_M0jlN69xFy6iNN-8">
          <mxGeometry width="50" height="50" relative="1" as="geometry">
            <mxPoint x="503" y="134" as="sourcePoint" />
            <mxPoint x="492" y="232" as="targetPoint" />
          </mxGeometry>
        </mxCell>
        <mxCell id="mUu3V_M0jlN69xFy6iNN-36" value="rejected&lt;br&gt;or&lt;br&gt;timeout" style="endArrow=classic;html=1;rounded=0;entryX=1;entryY=1;entryDx=0;entryDy=0;exitX=0.896;exitY=0.241;exitDx=0;exitDy=0;exitPerimeter=0;" edge="1" parent="mUu3V_M0jlN69xFy6iNN-3" source="mUu3V_M0jlN69xFy6iNN-27" target="mUu3V_M0jlN69xFy6iNN-20">
          <mxGeometry x="0.2477" width="50" height="50" relative="1" as="geometry">
            <mxPoint x="371" y="211" as="sourcePoint" />
            <mxPoint x="386" y="156" as="targetPoint" />
            <mxPoint as="offset" />
          </mxGeometry>
        </mxCell>
        <mxCell id="mUu3V_M0jlN69xFy6iNN-37" value="connected&lt;br&gt;to&lt;br&gt;the server" style="ellipse;whiteSpace=wrap;html=1;aspect=fixed;" vertex="1" parent="mUu3V_M0jlN69xFy6iNN-3">
          <mxGeometry x="720" y="210" width="80" height="80" as="geometry" />
        </mxCell>
        <mxCell id="mUu3V_M0jlN69xFy6iNN-38" value="accepted" style="endArrow=classic;html=1;rounded=0;exitX=1;exitY=0.5;exitDx=0;exitDy=0;" edge="1" parent="mUu3V_M0jlN69xFy6iNN-3" source="mUu3V_M0jlN69xFy6iNN-27" target="mUu3V_M0jlN69xFy6iNN-37">
          <mxGeometry x="-0.2934" y="-1" width="50" height="50" relative="1" as="geometry">
            <mxPoint x="503" y="150" as="sourcePoint" />
            <mxPoint x="482" y="252" as="targetPoint" />
            <mxPoint as="offset" />
          </mxGeometry>
        </mxCell>
        <mxCell id="mUu3V_M0jlN69xFy6iNN-39" value="relogin" style="ellipse;whiteSpace=wrap;html=1;aspect=fixed;" vertex="1" parent="mUu3V_M0jlN69xFy6iNN-3">
          <mxGeometry x="910" y="210" width="80" height="80" as="geometry" />
        </mxCell>
        <mxCell id="mUu3V_M0jlN69xFy6iNN-40" value="try&lt;br&gt;relogin" style="endArrow=classic;html=1;rounded=0;exitX=1;exitY=0.5;exitDx=0;exitDy=0;entryX=-0.026;entryY=0.439;entryDx=0;entryDy=0;entryPerimeter=0;" edge="1" parent="mUu3V_M0jlN69xFy6iNN-3" source="mUu3V_M0jlN69xFy6iNN-37" target="mUu3V_M0jlN69xFy6iNN-39">
          <mxGeometry x="-0.2934" y="-1" width="50" height="50" relative="1" as="geometry">
            <mxPoint x="550" y="280" as="sourcePoint" />
            <mxPoint x="760" y="263" as="targetPoint" />
            <mxPoint as="offset" />
          </mxGeometry>
        </mxCell>
        <mxCell id="mUu3V_M0jlN69xFy6iNN-41" value="wait for response" style="ellipse;whiteSpace=wrap;html=1;aspect=fixed;" vertex="1" parent="mUu3V_M0jlN69xFy6iNN-3">
          <mxGeometry x="830" y="370" width="80" height="80" as="geometry" />
        </mxCell>
        <mxCell id="mUu3V_M0jlN69xFy6iNN-42" value="(identity)&lt;br&gt;identity&lt;br&gt;exists" style="endArrow=classic;html=1;rounded=0;entryX=0.405;entryY=0.017;entryDx=0;entryDy=0;entryPerimeter=0;" edge="1" parent="mUu3V_M0jlN69xFy6iNN-3" source="mUu3V_M0jlN69xFy6iNN-39" target="mUu3V_M0jlN69xFy6iNN-41">
          <mxGeometry x="-0.2934" y="-1" width="50" height="50" relative="1" as="geometry">
            <mxPoint x="810" y="260" as="sourcePoint" />
            <mxPoint x="918" y="255" as="targetPoint" />
            <mxPoint as="offset" />
          </mxGeometry>
        </mxCell>
        <mxCell id="mUu3V_M0jlN69xFy6iNN-44" value="login&lt;br&gt;form" style="ellipse;whiteSpace=wrap;html=1;aspect=fixed;" vertex="1" parent="mUu3V_M0jlN69xFy6iNN-3">
          <mxGeometry x="970" y="520" width="80" height="80" as="geometry" />
        </mxCell>
        <mxCell id="mUu3V_M0jlN69xFy6iNN-45" value="rejected" style="endArrow=classic;html=1;rounded=0;exitX=1;exitY=1;exitDx=0;exitDy=0;" edge="1" parent="mUu3V_M0jlN69xFy6iNN-3" source="mUu3V_M0jlN69xFy6iNN-41" target="mUu3V_M0jlN69xFy6iNN-44">
          <mxGeometry x="-0.2934" y="-1" width="50" height="50" relative="1" as="geometry">
            <mxPoint x="937" y="292" as="sourcePoint" />
            <mxPoint x="872" y="381" as="targetPoint" />
            <mxPoint as="offset" />
          </mxGeometry>
        </mxCell>
        <mxCell id="mUu3V_M0jlN69xFy6iNN-46" value="failed&lt;br&gt;relogin" style="ellipse;whiteSpace=wrap;html=1;aspect=fixed;" vertex="1" parent="mUu3V_M0jlN69xFy6iNN-3">
          <mxGeometry x="730" y="490" width="80" height="80" as="geometry" />
        </mxCell>
        <mxCell id="mUu3V_M0jlN69xFy6iNN-47" value="(data)&lt;br&gt;timeout" style="endArrow=classic;html=1;rounded=0;entryX=0.5;entryY=0;entryDx=0;entryDy=0;exitX=0.025;exitY=0.689;exitDx=0;exitDy=0;exitPerimeter=0;" edge="1" parent="mUu3V_M0jlN69xFy6iNN-3" source="mUu3V_M0jlN69xFy6iNN-41" target="mUu3V_M0jlN69xFy6iNN-46">
          <mxGeometry x="0.0547" y="1" width="50" height="50" relative="1" as="geometry">
            <mxPoint x="937" y="292" as="sourcePoint" />
            <mxPoint x="872" y="381" as="targetPoint" />
            <mxPoint as="offset" />
          </mxGeometry>
        </mxCell>
        <mxCell id="mUu3V_M0jlN69xFy6iNN-48" value="quit" style="endArrow=classic;html=1;rounded=0;fillColor=#f8cecc;strokeColor=#b85450;dashed=1;entryX=1.076;entryY=0.5;entryDx=0;entryDy=0;entryPerimeter=0;" edge="1" parent="mUu3V_M0jlN69xFy6iNN-3" source="mUu3V_M0jlN69xFy6iNN-46" target="mUu3V_M0jlN69xFy6iNN-12">
          <mxGeometry width="50" height="50" relative="1" as="geometry">
            <mxPoint x="381" y="284" as="sourcePoint" />
            <mxPoint x="512" y="500" as="targetPoint" />
          </mxGeometry>
        </mxCell>
        <mxCell id="mUu3V_M0jlN69xFy6iNN-49" value="(data)&lt;br&gt;retry" style="endArrow=classic;html=1;rounded=0;entryX=0.405;entryY=1.034;entryDx=0;entryDy=0;exitX=0.991;exitY=0.431;exitDx=0;exitDy=0;exitPerimeter=0;entryPerimeter=0;" edge="1" parent="mUu3V_M0jlN69xFy6iNN-3" source="mUu3V_M0jlN69xFy6iNN-46" target="mUu3V_M0jlN69xFy6iNN-41">
          <mxGeometry x="0.0547" y="1" width="50" height="50" relative="1" as="geometry">
            <mxPoint x="842" y="435" as="sourcePoint" />
            <mxPoint x="780" y="500" as="targetPoint" />
            <mxPoint as="offset" />
          </mxGeometry>
        </mxCell>
        <mxCell id="mUu3V_M0jlN69xFy6iNN-51" value="nevermind&lt;br&gt;i login again" style="endArrow=classic;html=1;rounded=0;exitX=0.982;exitY=0.62;exitDx=0;exitDy=0;exitPerimeter=0;" edge="1" parent="mUu3V_M0jlN69xFy6iNN-3" source="mUu3V_M0jlN69xFy6iNN-46" target="mUu3V_M0jlN69xFy6iNN-44">
          <mxGeometry x="0.0547" y="1" width="50" height="50" relative="1" as="geometry">
            <mxPoint x="819" y="534" as="sourcePoint" />
            <mxPoint x="872" y="463" as="targetPoint" />
            <mxPoint as="offset" />
          </mxGeometry>
        </mxCell>
        <mxCell id="mUu3V_M0jlN69xFy6iNN-52" value="register&lt;br&gt;form" style="ellipse;whiteSpace=wrap;html=1;aspect=fixed;" vertex="1" parent="mUu3V_M0jlN69xFy6iNN-3">
          <mxGeometry x="1080" y="670" width="80" height="80" as="geometry" />
        </mxCell>
        <mxCell id="mUu3V_M0jlN69xFy6iNN-53" value="create&lt;br&gt;account" style="endArrow=classic;html=1;rounded=0;entryX=0.763;entryY=0.086;entryDx=0;entryDy=0;entryPerimeter=0;exitX=0.922;exitY=0.797;exitDx=0;exitDy=0;exitPerimeter=0;" edge="1" parent="mUu3V_M0jlN69xFy6iNN-3" source="mUu3V_M0jlN69xFy6iNN-44" target="mUu3V_M0jlN69xFy6iNN-52">
          <mxGeometry x="0.0547" y="1" width="50" height="50" relative="1" as="geometry">
            <mxPoint x="819" y="550" as="sourcePoint" />
            <mxPoint x="980" y="566" as="targetPoint" />
            <mxPoint as="offset" />
          </mxGeometry>
        </mxCell>
        <mxCell id="mUu3V_M0jlN69xFy6iNN-55" value="i have&lt;br&gt;account" style="endArrow=classic;html=1;rounded=0;entryX=0.5;entryY=1;entryDx=0;entryDy=0;exitX=0.047;exitY=0.314;exitDx=0;exitDy=0;exitPerimeter=0;" edge="1" parent="mUu3V_M0jlN69xFy6iNN-3" source="mUu3V_M0jlN69xFy6iNN-52" target="mUu3V_M0jlN69xFy6iNN-44">
          <mxGeometry x="0.0547" y="1" width="50" height="50" relative="1" as="geometry">
            <mxPoint x="1054" y="594" as="sourcePoint" />
            <mxPoint x="1100" y="670" as="targetPoint" />
            <mxPoint as="offset" />
          </mxGeometry>
        </mxCell>
        <mxCell id="mUu3V_M0jlN69xFy6iNN-56" value="wait&amp;nbsp;&lt;br&gt;for&lt;br&gt;response" style="ellipse;whiteSpace=wrap;html=1;aspect=fixed;" vertex="1" parent="mUu3V_M0jlN69xFy6iNN-3">
          <mxGeometry x="850" y="670" width="80" height="80" as="geometry" />
        </mxCell>
        <mxCell id="mUu3V_M0jlN69xFy6iNN-57" value="(data)&lt;br&gt;submit" style="endArrow=classic;html=1;rounded=0;exitX=0;exitY=0.75;exitDx=0;exitDy=0;exitPerimeter=0;entryX=0.215;entryY=0.094;entryDx=0;entryDy=0;entryPerimeter=0;" edge="1" parent="mUu3V_M0jlN69xFy6iNN-3" source="mUu3V_M0jlN69xFy6iNN-44" target="mUu3V_M0jlN69xFy6iNN-56">
          <mxGeometry x="0.0547" y="1" width="50" height="50" relative="1" as="geometry">
            <mxPoint x="819" y="550" as="sourcePoint" />
            <mxPoint x="980" y="566" as="targetPoint" />
            <mxPoint as="offset" />
          </mxGeometry>
        </mxCell>
        <mxCell id="mUu3V_M0jlN69xFy6iNN-58" value="(data+error)&lt;br&gt;failed" style="endArrow=classic;html=1;rounded=0;exitX=0.956;exitY=0.767;exitDx=0;exitDy=0;exitPerimeter=0;entryX=0.362;entryY=1.013;entryDx=0;entryDy=0;entryPerimeter=0;" edge="1" parent="mUu3V_M0jlN69xFy6iNN-3" source="mUu3V_M0jlN69xFy6iNN-56" target="mUu3V_M0jlN69xFy6iNN-44">
          <mxGeometry x="-0.1795" y="-4" width="50" height="50" relative="1" as="geometry">
            <mxPoint x="980" y="590" as="sourcePoint" />
            <mxPoint x="915" y="679" as="targetPoint" />
            <mxPoint as="offset" />
          </mxGeometry>
        </mxCell>
        <mxCell id="mUu3V_M0jlN69xFy6iNN-59" value="write identity&lt;br&gt;to local" style="ellipse;whiteSpace=wrap;html=1;aspect=fixed;" vertex="1" parent="mUu3V_M0jlN69xFy6iNN-3">
          <mxGeometry x="700" y="770" width="80" height="80" as="geometry" />
        </mxCell>
        <mxCell id="mUu3V_M0jlN69xFy6iNN-60" value="(identity)&lt;br&gt;sucess" style="endArrow=classic;html=1;rounded=0;exitX=0;exitY=0.5;exitDx=0;exitDy=0;entryX=0.926;entryY=0.189;entryDx=0;entryDy=0;entryPerimeter=0;" edge="1" parent="mUu3V_M0jlN69xFy6iNN-3" source="mUu3V_M0jlN69xFy6iNN-56" target="mUu3V_M0jlN69xFy6iNN-59">
          <mxGeometry x="0.0547" y="1" width="50" height="50" relative="1" as="geometry">
            <mxPoint x="980" y="590" as="sourcePoint" />
            <mxPoint x="877" y="688" as="targetPoint" />
            <mxPoint as="offset" />
          </mxGeometry>
        </mxCell>
      </root>
    </mxGraphModel>
  </diagram>
</mxfile>
